<svg xmlns="http://www.w3.org/2000/svg" version="1.1" xmlns:xlink="http://www.w3.org/1999/xlink" xmlns:svgjs="http://svgjs.dev/svgjs" width="1440" height="566" preserveAspectRatio="none" viewBox="0 0 1440 566"><g mask="url(&quot;#SvgjsMask1003&quot;)" fill="none"><path d="M52 231L-312 -133" stroke-width="10" stroke="url(&quot;#SvgjsLinearGradient1004&quot;)" stroke-linecap="round" class="BottomRight"></path><path d="M77 452L-219 156" stroke-width="8" stroke="url(&quot;#SvgjsLinearGradient1005&quot;)" stroke-linecap="round" class="TopLeft"></path><path d="M559 531L397 369" stroke-width="10" stroke="url(&quot;#SvgjsLinearGradient1005&quot;)" stroke-linecap="round" class="TopLeft"></path><path d="M1113 377L1367 631" stroke-width="6" stroke="url(&quot;#SvgjsLinearGradient1005&quot;)" stroke-linecap="round" class="TopLeft"></path><path d="M202 104L-211 -309" stroke-width="6" stroke="url(&quot;#SvgjsLinearGradient1005&quot;)" stroke-linecap="round" class="TopLeft"></path><path d="M547 120L212 -215" stroke-width="6" stroke="url(&quot;#SvgjsLinearGradient1004&quot;)" stroke-linecap="round" class="BottomRight"></path><path d="M593 52L810 269" stroke-width="10" stroke="url(&quot;#SvgjsLinearGradient1004&quot;)" stroke-linecap="round" class="BottomRight"></path><path d="M825 16L465 -344" stroke-width="10" stroke="url(&quot;#SvgjsLinearGradient1004&quot;)" stroke-linecap="round" class="BottomRight"></path><path d="M268 427L-117 42" stroke-width="6" stroke="url(&quot;#SvgjsLinearGradient1004&quot;)" stroke-linecap="round" class="BottomRight"></path><path d="M946 264L671 -11" stroke-width="10" stroke="url(&quot;#SvgjsLinearGradient1005&quot;)" stroke-linecap="round" class="TopLeft"></path><path d="M1344 293L1681 630" stroke-width="8" stroke="url(&quot;#SvgjsLinearGradient1004&quot;)" stroke-linecap="round" class="BottomRight"></path><path d="M1108 295L1502 689" stroke-width="6" stroke="url(&quot;#SvgjsLinearGradient1004&quot;)" stroke-linecap="round" class="BottomRight"></path><path d="M248 29L-10 -229" stroke-width="10" stroke="url(&quot;#SvgjsLinearGradient1004&quot;)" stroke-linecap="round" class="BottomRight"></path><path d="M577 280L220 -77" stroke-width="8" stroke="url(&quot;#SvgjsLinearGradient1005&quot;)" stroke-linecap="round" class="TopLeft"></path><path d="M1258 44L1576 362" stroke-width="10" stroke="url(&quot;#SvgjsLinearGradient1005&quot;)" stroke-linecap="round" class="TopLeft"></path><path d="M965 227L1336 598" stroke-width="10" stroke="url(&quot;#SvgjsLinearGradient1005&quot;)" stroke-linecap="round" class="TopLeft"></path><path d="M1263 223L893 -147" stroke-width="8" stroke="url(&quot;#SvgjsLinearGradient1004&quot;)" stroke-linecap="round" class="BottomRight"></path><path d="M708 285L1108 685" stroke-width="6" stroke="url(&quot;#SvgjsLinearGradient1005&quot;)" stroke-linecap="round" class="TopLeft"></path><path d="M1234 315L980 61" stroke-width="6" stroke="url(&quot;#SvgjsLinearGradient1005&quot;)" stroke-linecap="round" class="TopLeft"></path><path d="M434 223L640 429" stroke-width="10" stroke="url(&quot;#SvgjsLinearGradient1005&quot;)" stroke-linecap="round" class="TopLeft"></path><path d="M767 9L524 -234" stroke-width="8" stroke="url(&quot;#SvgjsLinearGradient1005&quot;)" stroke-linecap="round" class="TopLeft"></path><path d="M82 362L-170 110" stroke-width="10" stroke="url(&quot;#SvgjsLinearGradient1004&quot;)" stroke-linecap="round" class="BottomRight"></path><path d="M152 270L-31 87" stroke-width="6" stroke="url(&quot;#SvgjsLinearGradient1004&quot;)" stroke-linecap="round" class="BottomRight"></path><path d="M248 337L398 487" stroke-width="6" stroke="url(&quot;#SvgjsLinearGradient1005&quot;)" stroke-linecap="round" class="TopLeft"></path><path d="M180 349L-213 -44" stroke-width="8" stroke="url(&quot;#SvgjsLinearGradient1004&quot;)" stroke-linecap="round" class="BottomRight"></path><path d="M695 42L409 -244" stroke-width="8" stroke="url(&quot;#SvgjsLinearGradient1005&quot;)" stroke-linecap="round" class="TopLeft"></path><path d="M262 204L-24 -82" stroke-width="10" stroke="url(&quot;#SvgjsLinearGradient1005&quot;)" stroke-linecap="round" class="TopLeft"></path><path d="M467 430L163 126" stroke-width="8" stroke="url(&quot;#SvgjsLinearGradient1005&quot;)" stroke-linecap="round" class="TopLeft"></path><path d="M1274 21L980 -273" stroke-width="6" stroke="url(&quot;#SvgjsLinearGradient1004&quot;)" stroke-linecap="round" class="BottomRight"></path><path d="M369 347L695 673" stroke-width="8" stroke="url(&quot;#SvgjsLinearGradient1004&quot;)" stroke-linecap="round" class="BottomRight"></path><path d="M857 340L1092 575" stroke-width="6" stroke="url(&quot;#SvgjsLinearGradient1004&quot;)" stroke-linecap="round" class="BottomRight"></path><path d="M1127 130L826 -171" stroke-width="6" stroke="url(&quot;#SvgjsLinearGradient1005&quot;)" stroke-linecap="round" class="TopLeft"></path><path d="M1013 268L653 -92" stroke-width="6" stroke="url(&quot;#SvgjsLinearGradient1004&quot;)" stroke-linecap="round" class="BottomRight"></path><path d="M1164 35L1433 304" stroke-width="10" stroke="url(&quot;#SvgjsLinearGradient1004&quot;)" stroke-linecap="round" class="BottomRight"></path><path d="M6 260L205 459" stroke-width="10" stroke="url(&quot;#SvgjsLinearGradient1004&quot;)" stroke-linecap="round" class="BottomRight"></path><path d="M1136 453L1516 833" stroke-width="8" stroke="url(&quot;#SvgjsLinearGradient1004&quot;)" stroke-linecap="round" class="BottomRight"></path><path d="M1070 135L1428 493" stroke-width="6" stroke="url(&quot;#SvgjsLinearGradient1004&quot;)" stroke-linecap="round" class="BottomRight"></path><path d="M1167 49L1418 300" stroke-width="6" stroke="url(&quot;#SvgjsLinearGradient1004&quot;)" stroke-linecap="round" class="BottomRight"></path><path d="M848 470L657 279" stroke-width="6" stroke="url(&quot;#SvgjsLinearGradient1005&quot;)" stroke-linecap="round" class="TopLeft"></path></g><defs><mask id="SvgjsMask1003"><rect width="1440" height="566" fill="#ffffff"></rect></mask><linearGradient x1="0%" y1="0%" x2="100%" y2="100%" id="SvgjsLinearGradient1004"><stop stop-color="rgba(97, 91, 214, 0)" offset="0"></stop><stop stop-color="rgba(97, 91, 214, 1)" offset="1"></stop></linearGradient><linearGradient x1="100%" y1="100%" x2="0%" y2="0%" id="SvgjsLinearGradient1005"><stop stop-color="rgba(97, 91, 214, 0)" offset="0"></stop><stop stop-color="rgba(97, 91, 214, 1)" offset="1"></stop></linearGradient></defs></svg>